<?xml version="1.0" encoding="UTF-8" standalone="no"?>
<!-- Created with Inkscape (http://www.inkscape.org/) -->

<svg
   xmlns:dc="http://purl.org/dc/elements/1.1/"
   xmlns:cc="http://creativecommons.org/ns#"
   xmlns:rdf="http://www.w3.org/1999/02/22-rdf-syntax-ns#"
   xmlns:svg="http://www.w3.org/2000/svg"
   xmlns="http://www.w3.org/2000/svg"
   xmlns:xlink="http://www.w3.org/1999/xlink"
   xmlns:sodipodi="http://sodipodi.sourceforge.net/DTD/sodipodi-0.dtd"
   xmlns:inkscape="http://www.inkscape.org/namespaces/inkscape"
   width="315.96945"
   height="265.19724"
   id="svg6385"
   version="1.1"
   inkscape:version="0.48.4 r9939"
   inkscape:export-filename="/home/ryan/Projects/django/cyoa/cyoa/static/cyoa/logo.png"
   inkscape:export-xdpi="90"
   inkscape:export-ydpi="90"
   sodipodi:docname="logo.svg">
  <defs
     id="defs6387">
    <clipPath
       id="SVGID_2_">
      <use
         height="1334"
         width="667"
         y="0"
         x="0"
         style="overflow:visible"
         id="use63"
         overflow="visible"
         xlink:href="#SVGID_1_" />
    </clipPath>
    <clipPath
       id="SVGID_2_-2">
      <use
         height="1334"
         width="667"
         y="0"
         x="0"
         style="overflow:visible"
         id="use63-6"
         overflow="visible"
         xlink:href="#SVGID_1_" />
    </clipPath>
    <clipPath
       id="SVGID_2_-4">
      <use
         height="1334"
         width="667"
         y="0"
         x="0"
         style="overflow:visible"
         id="use63-9"
         overflow="visible"
         xlink:href="#SVGID_1_" />
    </clipPath>
    <clipPath
       id="SVGID_2_-20">
      <use
         xlink:href="#SVGID_1_"
         overflow="visible"
         id="use63-2"
         style="overflow:visible"
         x="0"
         y="0"
         width="667"
         height="1334" />
    </clipPath>
    <clipPath
       id="clipPath9062">
      <use
         xlink:href="#SVGID_1_"
         overflow="visible"
         id="use9064"
         style="overflow:visible"
         x="0"
         y="0"
         width="667"
         height="1334" />
    </clipPath>
    <clipPath
       id="clipPath9066">
      <use
         xlink:href="#SVGID_1_"
         overflow="visible"
         id="use9068"
         style="overflow:visible"
         x="0"
         y="0"
         width="667"
         height="1334" />
    </clipPath>
    <clipPath
       id="clipPath9070">
      <use
         xlink:href="#SVGID_1_"
         overflow="visible"
         id="use9072"
         style="overflow:visible"
         x="0"
         y="0"
         width="667"
         height="1334" />
    </clipPath>
    <clipPath
       id="clipPath9074">
      <use
         xlink:href="#SVGID_1_"
         overflow="visible"
         id="use9076"
         style="overflow:visible"
         x="0"
         y="0"
         width="667"
         height="1334" />
    </clipPath>
    <clipPath
       id="clipPath9078">
      <use
         xlink:href="#SVGID_1_"
         overflow="visible"
         id="use9080"
         style="overflow:visible"
         x="0"
         y="0"
         width="667"
         height="1334" />
    </clipPath>
    <clipPath
       id="clipPath9082">
      <use
         xlink:href="#SVGID_1_"
         overflow="visible"
         id="use9084"
         style="overflow:visible"
         x="0"
         y="0"
         width="667"
         height="1334" />
    </clipPath>
    <clipPath
       id="clipPath9086">
      <use
         xlink:href="#SVGID_1_"
         overflow="visible"
         id="use9088"
         style="overflow:visible"
         x="0"
         y="0"
         width="667"
         height="1334" />
    </clipPath>
    <clipPath
       id="clipPath9090">
      <use
         xlink:href="#SVGID_1_"
         overflow="visible"
         id="use9092"
         style="overflow:visible"
         x="0"
         y="0"
         width="667"
         height="1334" />
    </clipPath>
    <clipPath
       id="clipPath9094">
      <use
         xlink:href="#SVGID_1_"
         overflow="visible"
         id="use9096"
         style="overflow:visible"
         x="0"
         y="0"
         width="667"
         height="1334" />
    </clipPath>
    <clipPath
       id="clipPath9098">
      <use
         xlink:href="#SVGID_1_"
         overflow="visible"
         id="use9100"
         style="overflow:visible"
         x="0"
         y="0"
         width="667"
         height="1334" />
    </clipPath>
    <clipPath
       id="clipPath9102">
      <use
         xlink:href="#SVGID_1_"
         overflow="visible"
         id="use9104"
         style="overflow:visible"
         x="0"
         y="0"
         width="667"
         height="1334" />
    </clipPath>
    <clipPath
       id="clipPath9106">
      <use
         xlink:href="#SVGID_1_"
         overflow="visible"
         id="use9108"
         style="overflow:visible"
         x="0"
         y="0"
         width="667"
         height="1334" />
    </clipPath>
    <clipPath
       id="clipPath9110">
      <use
         xlink:href="#SVGID_1_"
         overflow="visible"
         id="use9112"
         style="overflow:visible"
         x="0"
         y="0"
         width="667"
         height="1334" />
    </clipPath>
    <clipPath
       id="clipPath9114">
      <use
         xlink:href="#SVGID_1_"
         overflow="visible"
         id="use9116"
         style="overflow:visible"
         x="0"
         y="0"
         width="667"
         height="1334" />
    </clipPath>
    <clipPath
       id="clipPath9118">
      <use
         xlink:href="#SVGID_1_"
         overflow="visible"
         id="use9120"
         style="overflow:visible"
         x="0"
         y="0"
         width="667"
         height="1334" />
    </clipPath>
    <clipPath
       id="clipPath9122">
      <use
         xlink:href="#SVGID_1_"
         overflow="visible"
         id="use9124"
         style="overflow:visible"
         x="0"
         y="0"
         width="667"
         height="1334" />
    </clipPath>
    <clipPath
       id="clipPath9126">
      <use
         xlink:href="#SVGID_1_"
         overflow="visible"
         id="use9128"
         style="overflow:visible"
         x="0"
         y="0"
         width="667"
         height="1334" />
    </clipPath>
    <clipPath
       id="clipPath9130">
      <use
         xlink:href="#SVGID_1_"
         overflow="visible"
         id="use9132"
         style="overflow:visible"
         x="0"
         y="0"
         width="667"
         height="1334" />
    </clipPath>
    <clipPath
       id="clipPath9134">
      <use
         xlink:href="#SVGID_1_"
         overflow="visible"
         id="use9136"
         style="overflow:visible"
         x="0"
         y="0"
         width="667"
         height="1334" />
    </clipPath>
    <clipPath
       id="clipPath9138">
      <use
         xlink:href="#SVGID_1_"
         overflow="visible"
         id="use9140"
         style="overflow:visible"
         x="0"
         y="0"
         width="667"
         height="1334" />
    </clipPath>
    <clipPath
       id="clipPath9142">
      <use
         xlink:href="#SVGID_1_"
         overflow="visible"
         id="use9144"
         style="overflow:visible"
         x="0"
         y="0"
         width="667"
         height="1334" />
    </clipPath>
    <clipPath
       id="clipPath9146">
      <use
         xlink:href="#SVGID_1_"
         overflow="visible"
         id="use9148"
         style="overflow:visible"
         x="0"
         y="0"
         width="667"
         height="1334" />
    </clipPath>
    <clipPath
       id="clipPath9150">
      <use
         xlink:href="#SVGID_1_"
         overflow="visible"
         id="use9152"
         style="overflow:visible"
         x="0"
         y="0"
         width="667"
         height="1334" />
    </clipPath>
    <clipPath
       id="clipPath9154">
      <use
         xlink:href="#SVGID_1_"
         overflow="visible"
         id="use9156"
         style="overflow:visible"
         x="0"
         y="0"
         width="667"
         height="1334" />
    </clipPath>
    <clipPath
       id="clipPath9158">
      <use
         xlink:href="#SVGID_1_"
         overflow="visible"
         id="use9160"
         style="overflow:visible"
         x="0"
         y="0"
         width="667"
         height="1334" />
    </clipPath>
    <clipPath
       id="clipPath9162">
      <use
         xlink:href="#SVGID_1_"
         overflow="visible"
         id="use9164"
         style="overflow:visible"
         x="0"
         y="0"
         width="667"
         height="1334" />
    </clipPath>
    <clipPath
       id="clipPath9166">
      <use
         xlink:href="#SVGID_1_"
         overflow="visible"
         id="use9168"
         style="overflow:visible"
         x="0"
         y="0"
         width="667"
         height="1334" />
    </clipPath>
    <clipPath
       id="clipPath9170">
      <use
         xlink:href="#SVGID_1_"
         overflow="visible"
         id="use9172"
         style="overflow:visible"
         x="0"
         y="0"
         width="667"
         height="1334" />
    </clipPath>
    <clipPath
       id="clipPath9174">
      <use
         xlink:href="#SVGID_1_"
         overflow="visible"
         id="use9176"
         style="overflow:visible"
         x="0"
         y="0"
         width="667"
         height="1334" />
    </clipPath>
    <clipPath
       id="clipPath9178">
      <use
         xlink:href="#SVGID_1_"
         overflow="visible"
         id="use9180"
         style="overflow:visible"
         x="0"
         y="0"
         width="667"
         height="1334" />
    </clipPath>
    <clipPath
       id="clipPath9182">
      <use
         xlink:href="#SVGID_1_"
         overflow="visible"
         id="use9184"
         style="overflow:visible"
         x="0"
         y="0"
         width="667"
         height="1334" />
    </clipPath>
    <clipPath
       id="clipPath9186">
      <use
         xlink:href="#SVGID_1_"
         overflow="visible"
         id="use9188"
         style="overflow:visible"
         x="0"
         y="0"
         width="667"
         height="1334" />
    </clipPath>
    <clipPath
       id="clipPath9190">
      <use
         xlink:href="#SVGID_1_"
         overflow="visible"
         id="use9192"
         style="overflow:visible"
         x="0"
         y="0"
         width="667"
         height="1334" />
    </clipPath>
    <clipPath
       id="clipPath9194">
      <use
         xlink:href="#SVGID_1_"
         overflow="visible"
         id="use9196"
         style="overflow:visible"
         x="0"
         y="0"
         width="667"
         height="1334" />
    </clipPath>
    <clipPath
       id="clipPath9198">
      <use
         xlink:href="#SVGID_1_"
         overflow="visible"
         id="use9200"
         style="overflow:visible"
         x="0"
         y="0"
         width="667"
         height="1334" />
    </clipPath>
    <clipPath
       id="clipPath9202">
      <use
         xlink:href="#SVGID_1_"
         overflow="visible"
         id="use9204"
         style="overflow:visible"
         x="0"
         y="0"
         width="667"
         height="1334" />
    </clipPath>
    <clipPath
       id="clipPath9206">
      <use
         xlink:href="#SVGID_1_"
         overflow="visible"
         id="use9208"
         style="overflow:visible"
         x="0"
         y="0"
         width="667"
         height="1334" />
    </clipPath>
    <clipPath
       id="clipPath9210">
      <use
         xlink:href="#SVGID_1_"
         overflow="visible"
         id="use9212"
         style="overflow:visible"
         x="0"
         y="0"
         width="667"
         height="1334" />
    </clipPath>
    <clipPath
       id="clipPath9214">
      <use
         xlink:href="#SVGID_1_"
         overflow="visible"
         id="use9216"
         style="overflow:visible"
         x="0"
         y="0"
         width="667"
         height="1334" />
    </clipPath>
    <clipPath
       id="clipPath9218">
      <use
         xlink:href="#SVGID_1_"
         overflow="visible"
         id="use9220"
         style="overflow:visible"
         x="0"
         y="0"
         width="667"
         height="1334" />
    </clipPath>
    <clipPath
       id="SVGID_4_">
      <rect
         id="use153"
         x="58.5"
         y="458.35001"
         width="550"
         height="70" />
    </clipPath>
    <clipPath
       id="clipPath9224">
      <use
         xlink:href="#SVGID_1_"
         overflow="visible"
         id="use9226"
         style="overflow:visible"
         x="0"
         y="0"
         width="667"
         height="1334" />
    </clipPath>
    <clipPath
       id="SVGID_6_">
      <rect
         id="use165"
         x="58.5"
         y="552.51099"
         width="550"
         height="70" />
    </clipPath>
    <defs
       id="defs59">
      <rect
         y="0"
         x="0"
         height="1334"
         width="667"
         id="SVGID_1_" />
    </defs>
    <clipPath
       id="clipPath9233">
      <use
         height="1334"
         width="667"
         y="0"
         x="0"
         style="overflow:visible"
         id="use9235"
         overflow="visible"
         xlink:href="#SVGID_1_" />
    </clipPath>
    <clipPath
       id="SVGID_2_-1">
      <use
         height="1334"
         width="667"
         y="0"
         x="0"
         style="overflow:visible"
         id="use63-0"
         overflow="visible"
         xlink:href="#SVGID_1_" />
    </clipPath>
    <clipPath
       id="clipPath10410">
      <use
         height="1334"
         width="667"
         y="0"
         x="0"
         style="overflow:visible"
         id="use10412"
         overflow="visible"
         xlink:href="#SVGID_1_" />
    </clipPath>
    <clipPath
       id="clipPath10414">
      <use
         height="1334"
         width="667"
         y="0"
         x="0"
         style="overflow:visible"
         id="use10416"
         overflow="visible"
         xlink:href="#SVGID_1_" />
    </clipPath>
    <clipPath
       id="clipPath10418">
      <use
         height="1334"
         width="667"
         y="0"
         x="0"
         style="overflow:visible"
         id="use10420"
         overflow="visible"
         xlink:href="#SVGID_1_" />
    </clipPath>
    <clipPath
       id="clipPath10422">
      <use
         height="1334"
         width="667"
         y="0"
         x="0"
         style="overflow:visible"
         id="use10424"
         overflow="visible"
         xlink:href="#SVGID_1_" />
    </clipPath>
    <clipPath
       id="clipPath10426">
      <use
         height="1334"
         width="667"
         y="0"
         x="0"
         style="overflow:visible"
         id="use10428"
         overflow="visible"
         xlink:href="#SVGID_1_" />
    </clipPath>
    <clipPath
       id="clipPath10430">
      <use
         height="1334"
         width="667"
         y="0"
         x="0"
         style="overflow:visible"
         id="use10432"
         overflow="visible"
         xlink:href="#SVGID_1_" />
    </clipPath>
    <clipPath
       id="clipPath10434">
      <use
         height="1334"
         width="667"
         y="0"
         x="0"
         style="overflow:visible"
         id="use10436"
         overflow="visible"
         xlink:href="#SVGID_1_" />
    </clipPath>
    <clipPath
       id="clipPath10438">
      <use
         height="1334"
         width="667"
         y="0"
         x="0"
         style="overflow:visible"
         id="use10440"
         overflow="visible"
         xlink:href="#SVGID_1_" />
    </clipPath>
    <clipPath
       id="clipPath10442">
      <use
         height="1334"
         width="667"
         y="0"
         x="0"
         style="overflow:visible"
         id="use10444"
         overflow="visible"
         xlink:href="#SVGID_1_" />
    </clipPath>
    <clipPath
       id="clipPath10446">
      <use
         height="1334"
         width="667"
         y="0"
         x="0"
         style="overflow:visible"
         id="use10448"
         overflow="visible"
         xlink:href="#SVGID_1_" />
    </clipPath>
    <clipPath
       id="clipPath10450">
      <use
         height="1334"
         width="667"
         y="0"
         x="0"
         style="overflow:visible"
         id="use10452"
         overflow="visible"
         xlink:href="#SVGID_1_" />
    </clipPath>
    <clipPath
       id="clipPath10454">
      <use
         height="1334"
         width="667"
         y="0"
         x="0"
         style="overflow:visible"
         id="use10456"
         overflow="visible"
         xlink:href="#SVGID_1_" />
    </clipPath>
    <clipPath
       id="clipPath10458">
      <use
         height="1334"
         width="667"
         y="0"
         x="0"
         style="overflow:visible"
         id="use10460"
         overflow="visible"
         xlink:href="#SVGID_1_" />
    </clipPath>
    <clipPath
       id="clipPath10462">
      <use
         height="1334"
         width="667"
         y="0"
         x="0"
         style="overflow:visible"
         id="use10464"
         overflow="visible"
         xlink:href="#SVGID_1_" />
    </clipPath>
    <clipPath
       id="clipPath10466">
      <use
         height="1334"
         width="667"
         y="0"
         x="0"
         style="overflow:visible"
         id="use10468"
         overflow="visible"
         xlink:href="#SVGID_1_" />
    </clipPath>
    <clipPath
       id="clipPath10470">
      <use
         height="1334"
         width="667"
         y="0"
         x="0"
         style="overflow:visible"
         id="use10472"
         overflow="visible"
         xlink:href="#SVGID_1_" />
    </clipPath>
    <clipPath
       id="clipPath10474">
      <use
         height="1334"
         width="667"
         y="0"
         x="0"
         style="overflow:visible"
         id="use10476"
         overflow="visible"
         xlink:href="#SVGID_1_" />
    </clipPath>
    <clipPath
       id="clipPath10478">
      <use
         height="1334"
         width="667"
         y="0"
         x="0"
         style="overflow:visible"
         id="use10480"
         overflow="visible"
         xlink:href="#SVGID_1_" />
    </clipPath>
    <clipPath
       id="clipPath10482">
      <use
         height="1334"
         width="667"
         y="0"
         x="0"
         style="overflow:visible"
         id="use10484"
         overflow="visible"
         xlink:href="#SVGID_1_" />
    </clipPath>
    <clipPath
       id="clipPath10486">
      <use
         height="1334"
         width="667"
         y="0"
         x="0"
         style="overflow:visible"
         id="use10488"
         overflow="visible"
         xlink:href="#SVGID_1_" />
    </clipPath>
    <clipPath
       id="clipPath10490">
      <use
         height="1334"
         width="667"
         y="0"
         x="0"
         style="overflow:visible"
         id="use10492"
         overflow="visible"
         xlink:href="#SVGID_1_" />
    </clipPath>
    <clipPath
       id="clipPath10494">
      <use
         height="1334"
         width="667"
         y="0"
         x="0"
         style="overflow:visible"
         id="use10496"
         overflow="visible"
         xlink:href="#SVGID_1_" />
    </clipPath>
    <clipPath
       id="clipPath10498">
      <use
         height="1334"
         width="667"
         y="0"
         x="0"
         style="overflow:visible"
         id="use10500"
         overflow="visible"
         xlink:href="#SVGID_1_" />
    </clipPath>
    <clipPath
       id="clipPath10502">
      <use
         height="1334"
         width="667"
         y="0"
         x="0"
         style="overflow:visible"
         id="use10504"
         overflow="visible"
         xlink:href="#SVGID_1_" />
    </clipPath>
    <clipPath
       id="clipPath10506">
      <use
         height="1334"
         width="667"
         y="0"
         x="0"
         style="overflow:visible"
         id="use10508"
         overflow="visible"
         xlink:href="#SVGID_1_" />
    </clipPath>
    <clipPath
       id="clipPath10510">
      <use
         height="1334"
         width="667"
         y="0"
         x="0"
         style="overflow:visible"
         id="use10512"
         overflow="visible"
         xlink:href="#SVGID_1_" />
    </clipPath>
    <clipPath
       id="clipPath10514">
      <use
         height="1334"
         width="667"
         y="0"
         x="0"
         style="overflow:visible"
         id="use10516"
         overflow="visible"
         xlink:href="#SVGID_1_" />
    </clipPath>
    <clipPath
       id="clipPath10518">
      <use
         height="1334"
         width="667"
         y="0"
         x="0"
         style="overflow:visible"
         id="use10520"
         overflow="visible"
         xlink:href="#SVGID_1_" />
    </clipPath>
    <clipPath
       id="clipPath10522">
      <use
         height="1334"
         width="667"
         y="0"
         x="0"
         style="overflow:visible"
         id="use10524"
         overflow="visible"
         xlink:href="#SVGID_1_" />
    </clipPath>
    <clipPath
       id="clipPath10526">
      <use
         height="1334"
         width="667"
         y="0"
         x="0"
         style="overflow:visible"
         id="use10528"
         overflow="visible"
         xlink:href="#SVGID_1_" />
    </clipPath>
  </defs>
  <sodipodi:namedview
     id="base"
     pagecolor="#000000"
     bordercolor="#666666"
     borderopacity="1.0"
     inkscape:pageopacity="0"
     inkscape:pageshadow="2"
     inkscape:zoom="1.4"
     inkscape:cx="234.12165"
     inkscape:cy="72.943112"
     inkscape:document-units="px"
     inkscape:current-layer="layer1"
     showgrid="false"
     inkscape:window-width="1366"
     inkscape:window-height="718"
     inkscape:window-x="0"
     inkscape:window-y="0"
     inkscape:window-maximized="1"
     fit-margin-top="0"
     fit-margin-left="0"
     fit-margin-right="0"
     fit-margin-bottom="0" />
  <metadata
     id="metadata6390">
    <rdf:RDF>
      <cc:Work
         rdf:about="">
        <dc:format>image/svg+xml</dc:format>
        <dc:type
           rdf:resource="http://purl.org/dc/dcmitype/StillImage" />
        <dc:title></dc:title>
      </cc:Work>
    </rdf:RDF>
  </metadata>
  <g
     inkscape:label="Layer 1"
     inkscape:groupmode="layer"
     id="layer1"
     transform="translate(10.659171,60.65093)">
    <line
       stroke-miterlimit="10"
       x1="149.82027"
       y1="190.90233"
       x2="159.03526"
       y2="163.44633"
       id="line55"
       style="fill:none;stroke:#ffffff;stroke-width:5.11199999;stroke-linecap:round;stroke-miterlimit:10" />
    <path
       transform="translate(-181.48473,-184.49468)"
       style="fill:#ffffff"
       inkscape:connector-curvature="0"
       id="path65"
       d="m 178.481,389.041 c -2.158,0 -4.167,-0.818 -5.656,-2.456 -1.488,-1.636 -2.232,-3.795 -1.935,-6.25 0.372,-3.945 2.903,-7.964 4.912,-10.718 2.381,-3.125 5.358,-6.176 8.036,-8.111 4.539,-3.275 10.121,-4.093 13.545,-1.935 2.232,1.414 3.199,3.87 2.604,6.772 -0.223,1.265 -5.729,13.544 -5.954,14.289 -0.371,1.489 -0.009,2.382 1.307,2.382 1.316,0 6.959,-3.269 10.754,-10.488 0.67,-1.339 1.931,-2.016 3.195,-1.346 1.34,0.671 1.787,2.308 1.116,3.573 -2.381,4.54 -4.905,7.422 -7.435,9.654 -2.604,2.382 -5.439,3.89 -8.416,3.89 -3.051,0 -4.539,-1.265 -5.283,-2.381 -0.223,-0.447 -0.447,-0.967 -0.596,-1.489 -3.051,2.457 -6.475,4.466 -9.823,4.614 h -0.371 z m 14.364,-25.377 c -1.563,0 -3.721,0.596 -5.881,2.158 -4.24,3.052 -10.418,10.27 -10.864,14.959 -0.074,1.34 0.298,1.86 0.596,2.233 0.521,0.594 1.116,0.817 1.935,0.743 3.125,-0.149 8.982,-4.692 11.759,-8.334 1.823,-2.392 2.146,-2.897 3.104,-4.743 0.957,-1.847 1.586,-3.529 1.81,-4.793 0.223,-0.968 -0.599,-1.776 -0.821,-1.85 -0.374,-0.225 -0.894,-0.373 -1.638,-0.373"
       clip-path="url(#SVGID_2_-1)" />
    <path
       transform="translate(-181.48473,-184.49468)"
       style="fill:#ffffff"
       inkscape:connector-curvature="0"
       id="path67"
       d="m 211.743,387.777 c -1.86,0 -3.572,-0.671 -5.061,-2.011 -1.266,-1.042 -2.68,-3.051 -2.531,-6.399 0.225,-6.922 7.293,-15.777 12.131,-19.276 4.763,-3.497 10.717,-4.464 14.141,-2.306 0.074,0.074 0.684,0.451 0.684,0.451 0,0 7.428,-2.832 3.26,4.908 -5.432,14.808 -4.094,18.232 -3.721,18.752 0.074,0.075 0.074,0.15 0.446,0.15 2.679,0 5.507,-0.744 10.195,-9.601 0.67,-1.339 2.307,-1.785 3.573,-1.116 1.265,0.67 1.785,2.233 1.115,3.572 -2.455,4.54 -4.613,7.591 -6.921,9.526 -2.307,1.935 -4.837,2.902 -7.963,2.902 -2.083,0 -3.87,-0.967 -4.911,-2.605 -0.968,-1.562 -1.34,-3.721 -1.191,-6.623 -0.67,0.893 -1.34,1.786 -2.01,2.531 -3.423,4.018 -6.474,6.251 -9.451,6.92 -0.593,0.149 -1.189,0.225 -1.785,0.225 m 14.214,-25.825 c -0.447,0 -0.894,0 -1.488,0.15 -1.712,0.297 -3.498,1.116 -5.135,2.306 -2.084,1.489 -4.54,4.167 -6.476,7.07 -2.084,3.126 -3.348,6.028 -3.422,8.112 -0.076,1.339 0.371,1.86 0.67,2.158 0.744,0.67 1.414,0.819 2.307,0.67 2.009,-0.447 6.549,-3.275 14.511,-16.894 0,0 1.151,-2.074 0.702,-2.736 -0.454,-0.669 -0.85,-0.836 -1.669,-0.836"
       clip-path="url(#SVGID_2_-1)" />
    <path
       transform="translate(-181.48473,-184.49468)"
       style="fill:#ffffff"
       inkscape:connector-curvature="0"
       id="path69"
       d="m 281.095,388.635 c -3.424,0 -8.187,-1.488 -10.271,-5.581 -1.116,-2.159 -1.34,-4.688 -0.67,-7.59 0.67,-2.903 1.979,-5.695 4.542,-9.297 2.602,-3.659 4.003,-5.159 7.221,-6.423 3.901,-1.531 6.708,-0.018 7.379,0.428 1.116,0.745 1.934,1.861 2.381,3.2 0.521,1.266 0.596,2.753 0.297,4.242 -0.744,3.573 -3.051,6.97 -16.907,10.602 -0.075,0.893 0.073,1.712 0.446,2.382 0.967,1.861 3.572,2.754 5.582,2.754 4.092,0 13.58,-3.214 16.929,-11.102 0.595,-1.34 2.825,-1.652 4.165,-1.056 1.34,0.521 -0.273,3.517 -0.795,4.858 -1.935,4.538 -5.713,6.778 -9.807,9.309 -3.274,2.084 -7.144,3.274 -10.492,3.274 m 2.321,-24.146 c -1.155,0.597 -2.34,1.813 -4.034,4.201 -0.967,1.341 -1.711,2.531 -2.381,3.722 7.696,-2.123 10.67,-4.446 10.039,-6.881 -0.422,-1.633 -2.468,-1.639 -3.624,-1.042"
       clip-path="url(#SVGID_2_-1)" />
    <path
       transform="translate(-181.48473,-184.49468)"
       style="fill:#ffffff"
       inkscape:connector-curvature="0"
       id="path71"
       d="m 355.582,374.529 c -1.488,3.497 -4.168,6.995 -7.441,9.674 -3.424,2.828 -7.07,4.54 -10.271,4.763 h -0.816 c -3.053,0 -5.656,-1.414 -7.221,-3.944 -1.414,-2.308 -1.711,-5.656 -0.893,-10.27 0.521,-2.977 8.41,-9.973 8.41,-9.973 -1.564,4.168 -2.68,7.889 -3.201,10.94 -0.818,4.391 -0.148,6.028 0.15,6.475 0.445,0.743 1.264,1.637 3.199,1.488 4.539,-0.372 10.865,-5.73 13.246,-11.238 0.596,-1.339 2.158,-1.935 3.498,-1.413 1.34,0.596 1.936,2.158 1.34,3.498"
       clip-path="url(#SVGID_2_-1)" />
    <path
       transform="translate(-181.48473,-184.49468)"
       style="fill:none;stroke:#ffffff;stroke-width:5.11199999;stroke-linecap:round;stroke-miterlimit:10"
       inkscape:connector-curvature="0"
       id="path73"
       d="m 299.735,378.875 c 0,0 4.961,-12.315 12.488,-14.823 7.526,-2.509 5.964,5.112 5.964,5.112 0,0 -0.544,2.896 -2.887,8.331 -1.982,4.6 0.143,6.487 0.639,6.781 1.396,0.483 8.075,2.797 15.365,-8.857"
       stroke-miterlimit="10"
       clip-path="url(#SVGID_2_-1)" />
    <path
       transform="translate(-181.48473,-184.49468)"
       style="fill:none;stroke:#ffffff;stroke-width:5.11199999;stroke-linecap:round;stroke-miterlimit:10"
       inkscape:connector-curvature="0"
       id="path75"
       d="m 377.5,382.135 c 0,0 10.014,-8.402 11.385,-17.921 1.332,-9.233 0.402,-14.936 -4.283,-13.22 -4.742,1.737 -3.029,10.2 6.461,12.225 7.312,1.561 9.018,5.05 6.66,9.193 -1.113,1.955 -6.447,9.439 -3.418,12.137 3.029,2.698 12.498,-0.862 18.367,-10.253"
       stroke-miterlimit="10"
       clip-path="url(#SVGID_2_-1)" />
    <path
       transform="translate(-181.48473,-184.49468)"
       style="fill:none;stroke:#ffffff;stroke-width:5.11199999;stroke-linecap:round;stroke-miterlimit:10"
       inkscape:connector-curvature="0"
       id="path77"
       d="m 245.433,366.419 c 0,0 -4.924,17.492 0.142,19.007 5.278,1.578 16.262,-12.732 17.894,-16.356 1.703,-3.787 1.135,-12.691 -5.113,-11.271 -7.487,1.702 0.144,17.021 8.119,18.034 8.947,1.136 14.887,-2.127 14.887,-2.127"
       stroke-miterlimit="10"
       clip-path="url(#SVGID_2_-1)" />
    <line
       transform="translate(-181.48473,-184.49468)"
       style="fill:none;stroke:#ffffff;stroke-width:5.11199999;stroke-linecap:round;stroke-miterlimit:10"
       id="line79"
       y2="357.79901"
       x2="351.039"
       y1="357.79901"
       x1="324.53101"
       stroke-miterlimit="10"
       clip-path="url(#SVGID_2_-1)" />
    <path
       transform="translate(-181.48473,-184.49468)"
       style="fill:#ffffff"
       inkscape:connector-curvature="0"
       id="path81"
       d="m 356.102,387.626 c -2.158,0 -4.018,-1.116 -5.285,-3.125 -1.412,-2.307 -1.561,-5.656 -0.445,-10.196 0.893,-3.274 2.455,-7.292 4.613,-11.832 0.67,-1.339 2.234,-1.861 3.572,-1.265 1.266,0.669 1.861,2.232 1.191,3.571 -6.25,12.875 -4.764,16.373 -4.465,16.968 0.445,0.596 0.67,0.596 0.893,0.596 1.266,-0.074 3.869,-1.712 7.293,-5.879 2.754,-3.424 5.508,-7.815 7.07,-11.461 0.596,-1.34 2.158,-1.935 3.498,-1.34 1.34,0.596 1.934,2.084 1.34,3.424 -2.307,5.433 -3.053,8.93 -3.201,10.939 -0.297,2.456 0.223,3.424 0.373,3.572 0.223,0.075 1.34,-0.074 3.273,-1.637 1.637,-1.191 4.242,-3.721 7.516,-8.633 0.82,-1.19 2.457,-1.488 3.721,-0.669 1.191,0.818 1.49,2.455 0.672,3.646 -3.127,4.54 -6.252,8.112 -9.08,10.196 -4.168,3.051 -6.994,2.679 -8.633,1.786 -1.34,-0.745 -2.828,-2.307 -3.199,-5.656 -3.721,4.391 -7.145,6.772 -10.195,6.995 h -0.522 z"
       clip-path="url(#SVGID_2_-1)" />
    <line
       transform="translate(-181.48473,-184.49468)"
       style="fill:none;stroke:#ffffff;stroke-width:5.11199999;stroke-linecap:round;stroke-miterlimit:10"
       id="line83"
       y2="364.271"
       x2="301.78201"
       y1="385.64401"
       x1="298.44299"
       stroke-miterlimit="10"
       clip-path="url(#SVGID_2_-1)" />
    <path
       transform="translate(-181.48473,-184.49468)"
       style="fill:#50c0e8"
       inkscape:connector-curvature="0"
       id="path85"
       d="m 385.926,364.114 c 0,0 1.342,0.611 2.781,1.112 0,0 -2.408,-0.447 -4.176,3.778 l 1.395,-4.89 z"
       clip-path="url(#SVGID_2_-1)" />
    <path
       transform="translate(-181.48473,-184.49468)"
       style="fill:#50c0e8"
       inkscape:connector-curvature="0"
       id="path87"
       d="m 365.219,382.413 c 1.418,-1.518 2.98,-4.571 2.98,-4.571 0,0 -1.42,3.465 -0.283,6.674 0,0 -1.562,-1.136 -2.697,-2.103"
       clip-path="url(#SVGID_2_-1)" />
    <path
       transform="translate(-181.48473,-184.49468)"
       style="fill:#50c0e8"
       inkscape:connector-curvature="0"
       id="path89"
       d="m 185.9,386.528 c 2.06,-1.515 4.44,-5.349 4.44,-5.349 0,0 -1.646,4.445 0.145,6.105 0,0 -3.451,0.211 -4.585,-0.756"
       clip-path="url(#SVGID_2_-1)" />
    <path
       transform="translate(-181.48473,-184.49468)"
       style="fill:#50c0e8"
       inkscape:connector-curvature="0"
       id="path91"
       d="m 332.164,360.375 h 3.748 c 0,0 -2.469,1.295 -4.607,6.213 l 0.859,-6.213 z"
       clip-path="url(#SVGID_2_-1)" />
    <path
       transform="translate(-181.48473,-184.49468)"
       style="fill:#50c0e8"
       inkscape:connector-curvature="0"
       id="path93"
       d="m 304.224,365.452 -0.959,5.645 c 0,0 2.934,-6.791 5.823,-8.556 l -4.864,2.911 z"
       clip-path="url(#SVGID_2_-1)" />
    <path
       transform="translate(-181.48473,-184.49468)"
       style="fill:#50c0e8"
       inkscape:connector-curvature="0"
       id="path95"
       d="m 412.256,379.759 -0.91,-3.715 c 0,0 0.525,4.283 -2.93,7.171 l 2.418,1.065 1.422,-4.521 z"
       clip-path="url(#SVGID_2_-1)" />
    <path
       transform="translate(-181.48473,-184.49468)"
       style="fill:#ffffff"
       inkscape:connector-curvature="0"
       id="path97"
       d="m 420.947,337.836 c 1.424,0 2.137,0.712 2.137,2.136 v 27.916 c 0,5.483 0.355,8.83 5.625,8.83 5.27,0 5.625,-3.347 5.625,-8.83 v -27.916 c 0,-1.424 0.783,-2.136 2.137,-2.136 h 7.975 c 1.426,0 2.139,0.712 2.139,2.136 v 31.69 c 0,4.701 -0.998,17.304 -17.875,17.304 -16.877,0 -17.875,-12.603 -17.875,-17.304 v -31.69 c 0,-1.424 0.783,-2.136 2.137,-2.136 h 7.975 z"
       clip-path="url(#SVGID_2_-1)" />
    <path
       transform="translate(-181.48473,-184.49468)"
       style="fill:#50c0e8"
       inkscape:connector-curvature="0"
       id="path99"
       d="m 269.532,378.625 c 0,0 0.977,0.022 2.34,-0.052 0,0 -2.192,0.335 -0.985,5.021 l -2.698,-2.556 1.343,-2.413 z"
       clip-path="url(#SVGID_2_-1)" />
    <path
       transform="translate(-181.48473,-184.49468)"
       style="fill:#ffffff"
       inkscape:connector-curvature="0"
       id="path101"
       d="m 476.043,355.497 c -1.424,0.286 -2.137,-0.356 -2.35,-1.78 -0.498,-2.92 -2.85,-4.771 -6.195,-4.771 -2.777,0 -4.488,1.638 -4.203,3.276 0.998,5.554 23.5,5.412 23.5,21.791 0,2.136 -2.42,14.741 -19.297,14.741 -14.955,0 -18.16,-9.828 -18.516,-15.382 -0.072,-1.282 0.568,-2.065 1.852,-2.351 l 8.047,-1.779 c 1.424,-0.286 2.207,0.356 2.35,1.851 0.285,3.419 2.92,5.413 6.268,5.413 3.488,0 6.051,-2.066 5.625,-3.989 -1.354,-6.053 -22.787,-4.7 -22.787,-21.079 -0.072,-2.136 1.209,-14.74 17.162,-14.74 14.67,0 18.088,9.542 18.514,14.669 0.072,1.282 -0.568,2.065 -1.852,2.35 l -8.118,1.78 z"
       clip-path="url(#SVGID_2_-1)" />
    <path
       transform="translate(-181.48473,-184.49468)"
       style="fill:#50c0e8"
       inkscape:connector-curvature="0"
       id="path103"
       d="m 257.245,372.788 c 0,0 0.973,1.171 2.18,2.138 0,0 -2.17,-1.237 -4.691,1.614 l 2.511,-3.752 z"
       clip-path="url(#SVGID_2_-1)" />
    <path
       transform="translate(-181.48473,-184.49468)"
       style="fill:#50c0e8"
       inkscape:connector-curvature="0"
       id="path105"
       d="m 232.758,354.126 -3.035,7.242 c 0,0 1.649,-4.473 -3.835,-4.81 l 6.87,-2.432 z"
       clip-path="url(#SVGID_2_-1)" />
    <line
       transform="translate(-181.48473,-184.49468)"
       style="fill:none;stroke:#ffffff;stroke-width:5.11199999;stroke-linecap:round;stroke-miterlimit:10"
       id="line107"
       y2="340.582"
       x2="241.138"
       y1="367.33899"
       x1="230.06"
       stroke-miterlimit="10"
       clip-path="url(#SVGID_2_-1)" />
    <path
       transform="translate(-181.48473,-184.49468)"
       style="fill:none;stroke:#ffffff;stroke-width:6;stroke-linecap:round;stroke-miterlimit:10"
       inkscape:connector-curvature="0"
       id="path109"
       d="m 331.941,291.431 -18.803,-17.186 c 0,0 -21.87,-22.074 11.722,-21.231 23.247,0.584 25.247,2.893 25.247,5.584 0,2.691 -47.834,8.833 -61.334,-11 -4.176,-6.136 -3.993,-15.5 36.087,-15.5 40.081,0 43.735,3.415 43.749,6.33 0.02,4.586 -75.63,9.839 -94.211,-9.664 0,0 -22.946,-20.996 50.462,-21.833 80.413,-0.917 55.126,10.717 47.038,12.083 -13.438,2.271 -110.75,11.375 -108.386,-21.083 0,0 -3.232,-22.333 61.348,-22.333 64.581,0 61.288,10.291 61.112,13.291 -0.264,4.54 -7.691,5.375 -61.112,5.375 -53.42,0 -56.471,-15.995 -53.42,-24.5 2.995,-8.346 18.84,-28.666 53.42,-28.666 34.581,0 48.247,14.833 41.081,20.166 -3.881,2.888 -41.081,2.499 -41.081,2.499 0,0 -42.123,1.501 -55.021,-18.332 l -8.91,-13"
       stroke-miterlimit="10"
       clip-path="url(#SVGID_2_-1)" />
    <polyline
       transform="translate(-181.48473,-184.49468)"
       style="fill:none;stroke:#ffffff;stroke-width:6;stroke-linecap:round;stroke-miterlimit:10"
       id="polyline111"
       points="     335.373,281.182 336.695,294.617 323.26,295.94    "
       stroke-miterlimit="10"
       clip-path="url(#SVGID_2_-1)" />
    <polyline
       transform="translate(-181.48473,-184.49468)"
       style="fill:none;stroke:#ffffff;stroke-width:6;stroke-linecap:round;stroke-miterlimit:10"
       id="polyline113"
       points="     255.222,140.604 258.339,127.469 271.474,130.586    "
       stroke-miterlimit="10"
       clip-path="url(#SVGID_2_-1)" />
    <path
       transform="translate(-181.48473,-184.49468)"
       style="fill:#3baed9"
       inkscape:connector-curvature="0"
       id="path115"
       d="m 367.277,312.098 c 0,2.393 -18.99,4.333 -42.416,4.333 -23.427,0 -42.416,-1.94 -42.416,-4.333 0,-2.393 18.989,-4.333 42.416,-4.333 23.426,0 42.416,1.94 42.416,4.333"
       clip-path="url(#SVGID_2_-1)" />
    <path
       transform="translate(-181.48473,-184.49468)"
       style="fill:#50c0e8"
       inkscape:connector-curvature="0"
       id="path117"
       d="m 273.962,210.139 c 0,0 4.03,2.406 8.062,3.458 0,0 -5.625,-2.677 -0.688,-4.677 l -7.374,1.219 z"
       clip-path="url(#SVGID_2_-1)" />
    <path
       transform="translate(-181.48473,-184.49468)"
       style="fill:#50c0e8"
       inkscape:connector-curvature="0"
       id="path119"
       d="m 309.94,256.556 c 0,0 -3.25,-0.625 -5.333,-1.5 0,0 1.958,-2.917 8.083,-4.042 0,0 -8.042,2.834 -2.75,5.542"
       clip-path="url(#SVGID_2_-1)" />
    <path
       transform="translate(-181.48473,-184.49468)"
       style="fill:#50c0e8"
       inkscape:connector-curvature="0"
       id="path121"
       d="m 289.368,233.92 c 0,0 5.53,1.552 7.74,2.135 0,0 -6.365,-3.583 3.832,-5.333 l -1.832,-1.833 -9.74,5.031 z"
       clip-path="url(#SVGID_2_-1)" />
    <path
       transform="translate(-181.48473,-184.49468)"
       style="fill:#50c0e8"
       inkscape:connector-curvature="0"
       id="path123"
       d="m 279.774,183.702 c 0,0 -3.875,-2.813 -4.812,-4.937 l 13.125,-2.938 c 0,0 -14.125,3.25 -8.313,7.875"
       clip-path="url(#SVGID_2_-1)" />
    <path
       transform="translate(-181.48473,-184.49468)"
       style="fill:#50c0e8"
       inkscape:connector-curvature="0"
       id="path125"
       d="m 286.024,154.473 c 0,0 -4.293,-2.125 -7.5,-4.417 0,0 10.188,-4.01 16.562,-6.229 10e-4,0 -16.021,5.563 -9.062,10.646"
       clip-path="url(#SVGID_2_-1)" />
  </g>
</svg>
